<?xml version="1.0" standalone="no"?>
<!DOCTYPE svg PUBLIC "-//W3C//DTD SVG 20010904//EN"
 "http://www.w3.org/TR/2001/REC-SVG-20010904/DTD/svg10.dtd">
<svg version="1.0" xmlns="http://www.w3.org/2000/svg"
 width="512.000000pt" height="512.000000pt" viewBox="0 0 512.000000 512.000000"
 preserveAspectRatio="xMidYMid meet">

<g transform="translate(0.000000,512.000000) scale(0.100000,-0.100000)"
fill="#000000" stroke="none">
<path d="M2907 4138 c-27 -21 -36 -60 -22 -94 13 -31 56 -50 378 -165 l37 -13
0 -223 0 -223 -770 0 -770 0 0 75 0 75 104 0 c89 0 107 3 130 21 32 25 35 75
7 110 -19 24 -20 24 -277 27 -142 2 -269 0 -282 -3 -61 -15 -82 -86 -37 -130
22 -23 32 -25 110 -25 l85 0 0 -105 0 -106 -77 -169 c-60 -132 -81 -169 -93
-164 -112 49 -300 74 -457 62 -414 -32 -779 -318 -916 -719 -177 -515 82
-1099 582 -1313 159 -69 223 -81 431 -80 172 0 191 2 275 28 232 70 428 203
566 385 102 134 189 348 206 504 l6 57 181 0 c148 0 186 3 204 16 12 8 207
283 433 610 226 326 414 594 417 594 4 0 35 -54 70 -119 l63 -120 -59 -40
c-77 -52 -200 -174 -250 -248 -52 -77 -114 -202 -140 -283 -37 -115 -46 -182
-46 -335 1 -130 4 -163 27 -249 84 -314 283 -557 572 -698 339 -165 734 -136
1060 77 80 52 231 204 284 285 275 424 229 967 -112 1327 -121 127 -256 215
-421 272 -221 78 -453 80 -683 6 -43 -14 -81 -25 -85 -25 -3 0 -47 79 -97 175
l-91 175 0 284 c0 156 -3 292 -6 301 -9 23 -38 36 -265 120 -206 76 -242 85
-272 63z m297 -890 c-18 -31 -758 -1105 -772 -1120 -13 -16 -35 -18 -163 -18
l-148 0 -6 48 c-41 310 -225 608 -472 764 l-62 39 53 112 c29 62 61 129 71
150 l19 37 743 0 c593 0 743 -3 737 -12z m-1999 -318 c74 -12 165 -40 165 -51
0 -4 -85 -189 -190 -411 -206 -437 -213 -459 -164 -497 26 -21 36 -21 486 -21
l460 0 -6 -47 c-18 -129 -73 -270 -148 -382 -43 -65 -163 -186 -228 -231 -81
-55 -168 -96 -267 -127 -80 -24 -103 -27 -248 -27 -146 0 -168 3 -250 28 -301
92 -529 320 -621 621 -25 82 -28 104 -28 250 0 145 3 168 27 248 105 342 381
589 724 647 69 11 218 11 288 0z m3016 -6 c361 -68 652 -361 719 -724 16 -83
16 -247 0 -330 -65 -350 -327 -626 -680 -716 -105 -27 -315 -27 -420 0 -338
87 -590 339 -671 673 -29 119 -29 304 0 415 41 159 95 261 199 384 51 60 190
181 197 172 1 -2 95 -183 209 -403 114 -220 217 -408 228 -417 21 -18 54 -23
83 -12 24 9 47 61 39 87 -4 12 -99 198 -210 413 -112 215 -204 396 -204 402 0
12 66 34 172 57 86 18 239 18 339 -1z m-2650 -142 c138 -88 272 -256 338 -423
24 -60 61 -229 54 -241 -2 -5 -178 -8 -390 -8 -363 0 -385 1 -379 18 18 46
322 682 327 682 3 0 25 -13 50 -28z"/>
</g>
</svg>
