<?xml version="1.0" standalone="no"?>
<!DOCTYPE svg PUBLIC "-//W3C//DTD SVG 20010904//EN"
 "http://www.w3.org/TR/2001/REC-SVG-20010904/DTD/svg10.dtd">
<svg version="1.0" xmlns="http://www.w3.org/2000/svg"
 width="512.000000pt" height="512.000000pt" viewBox="0 0 512.000000 512.000000"
 preserveAspectRatio="xMidYMid meet">

<g transform="translate(0.000000,512.000000) scale(0.100000,-0.100000)"
fill="#000000" stroke="none">
<path d="M1976 3980 c-217 -27 -414 -101 -594 -222 -98 -66 -189 -153 -344
-330 -224 -255 -316 -328 -543 -429 -188 -83 -273 -157 -344 -299 -58 -116
-63 -152 -59 -462 l3 -273 34 -63 c40 -74 94 -124 171 -160 45 -21 75 -27 164
-32 l109 -5 17 -60 c50 -182 192 -351 365 -435 114 -55 191 -73 315 -73 125 0
201 18 320 75 70 34 100 57 175 132 98 99 143 171 181 291 l22 70 592 0 592 0
22 -70 c39 -122 82 -192 180 -290 74 -74 107 -99 176 -132 118 -58 194 -76
320 -76 269 -1 501 139 627 378 20 39 44 97 53 130 l17 60 109 5 c89 5 120 11
165 32 76 35 129 85 170 160 l34 63 3 178 c3 139 0 195 -13 252 -58 261 -233
479 -469 585 -33 15 -198 69 -366 120 -289 87 -391 126 -450 172 -14 11 -118
108 -231 215 -113 107 -242 221 -285 254 -92 69 -246 147 -359 182 -172 54
-212 58 -520 62 -159 2 -321 0 -359 -5z m204 -570 l0 -320 -550 0 -550 0 112
127 c62 70 140 156 173 191 187 199 458 318 728 321 l87 1 0 -320z m451 305
c157 -27 320 -97 443 -190 33 -24 127 -108 209 -187 83 -79 177 -167 209 -195
l59 -53 -556 0 -555 0 0 320 0 320 54 0 c29 0 91 -7 137 -15z m1658 -916 c178
-52 267 -105 358 -212 92 -109 133 -238 133 -425 0 -169 -16 -190 -151 -199
l-78 -6 -6 29 c-70 326 -361 564 -689 564 -125 0 -215 -21 -321 -75 -190 -95
-321 -261 -375 -472 l-11 -43 -589 0 -589 0 -11 43 c-54 212 -188 380 -375
473 -107 53 -197 74 -321 74 -328 0 -619 -237 -689 -564 l-6 -29 -78 6 c-151
10 -154 16 -149 321 3 228 3 232 30 286 38 78 99 135 188 176 41 19 98 45 125
59 l50 24 1724 0 1724 1 106 -31z m-2926 -514 c356 -75 481 -526 213 -773
-235 -217 -612 -132 -729 165 -101 258 54 549 326 608 81 18 108 18 190 0z
m2578 1 c124 -27 222 -94 289 -198 81 -124 94 -300 32 -431 -37 -80 -121 -172
-190 -210 -141 -76 -318 -74 -454 6 -65 38 -145 128 -181 204 -61 131 -47 307
33 431 66 102 165 171 284 197 80 17 107 18 187 1z"/>
</g>
</svg>
