<svg xmlns="http://www.w3.org/2000/svg" width="512" height="512" viewBox="0 0 512 512" version="1.1"><path d="" stroke="none" fill="#080404" fill-rule="evenodd"/><path d="M 229 1.652 C 152.927 13.310, 92.149 68.096, 73.575 141.755 C 67.322 166.553, 66.319 195.842, 70.982 217.473 C 83.186 274.083, 127.189 352.114, 198.932 444.370 C 223.367 475.792, 254.356 512.441, 255.947 511.799 C 258.071 510.944, 287.664 475.827, 307.605 450.500 C 385.035 352.157, 431.854 268.197, 441.669 210.082 C 443.780 197.585, 443.694 174.691, 441.483 160.381 C 435.110 119.131, 417.388 84.138, 388.088 54.954 C 358.745 25.726, 324.084 8.174, 283.500 1.993 C 267.876 -0.387, 243.307 -0.540, 229 1.652 M 247.500 30.644 C 188.500 34.176, 137.003 69.315, 112.780 122.572 C 102.975 144.129, 98.900 162.638, 98.813 186 C 98.720 210.894, 105.122 233.286, 123.257 271.500 C 141.399 309.728, 176.578 365.111, 211.867 411 C 224.628 427.595, 240.511 447.627, 248.068 456.658 L 255.730 465.816 259.192 461.658 C 295.957 417.502, 333.636 365.753, 358.694 325 C 388.186 277.038, 406.104 236.035, 411.275 204.677 C 413.224 192.854, 413.298 190.709, 412.215 177.177 C 410.829 159.850, 409.133 151.219, 404.322 137 C 385.512 81.413, 335.463 39.868, 278 32.142 C 269.088 30.944, 254.478 30.226, 247.500 30.644 M 237.189 70.597 C 199.719 76.882, 165.515 104.727, 152.234 139.759 C 146.473 154.952, 145.498 160.868, 145.518 180.500 C 145.535 197.039, 145.760 199.312, 148.296 208.500 C 161.802 257.432, 205.460 290.992, 255.619 290.999 C 303.055 291.005, 346.021 260.177, 360.843 215.500 C 368.317 192.972, 368.289 166.488, 360.767 144.500 C 343.192 93.120, 290.561 61.646, 237.189 70.597 M 239.112 101.478 C 222.466 105.264, 208.723 113.201, 196.725 125.955 C 190.844 132.206, 188.086 136.222, 184.169 144.233 C 177.397 158.086, 175.655 165.574, 175.733 180.500 C 175.810 195.215, 178.005 204.337, 184.459 216.774 C 195.055 237.189, 214.322 252.486, 236.410 258.019 C 246.106 260.447, 263.461 260.667, 273 258.481 C 297.325 252.908, 317.183 237.034, 328.017 214.500 C 332.964 204.211, 334.883 196.787, 335.641 185 C 338.016 148.069, 314.928 114.660, 279.180 103.299 C 269.308 100.161, 248.963 99.237, 239.112 101.478" stroke="none" fill="#040404" fill-rule="evenodd"/></svg>