<?xml version="1.0" standalone="no"?>
<!DOCTYPE svg PUBLIC "-//W3C//DTD SVG 20010904//EN"
 "http://www.w3.org/TR/2001/REC-SVG-20010904/DTD/svg10.dtd">
<svg version="1.0" xmlns="http://www.w3.org/2000/svg"
 width="448.000000pt" height="448.000000pt" viewBox="0 0 448.000000 448.000000"
 preserveAspectRatio="xMidYMid meet">

<g transform="translate(0.000000,448.000000) scale(0.100000,-0.100000)"
fill="#000000" stroke="none">
<path d="M2104 4466 c-50 -22 -61 -87 -21 -123 19 -18 40 -22 147 -28 335 -18
617 -94 899 -242 502 -263 898 -723 1080 -1254 67 -198 111 -446 111 -632 0
-80 2 -90 25 -112 33 -34 78 -33 112 1 l26 26 -6 147 c-13 318 -85 594 -232
896 -312 641 -925 1128 -1607 1279 -205 45 -480 67 -534 42z"/>
<path d="M2085 3885 c-34 -33 -34 -86 -1 -113 20 -15 48 -20 146 -25 290 -16
584 -119 827 -290 116 -82 322 -288 406 -407 165 -234 272 -533 283 -790 3
-58 7 -120 10 -138 11 -69 88 -96 134 -47 22 24 23 28 17 167 -15 341 -135
666 -357 958 -330 435 -861 708 -1378 710 -54 0 -67 -4 -87 -25z"/>
<path d="M696 3550 c-92 -16 -143 -53 -327 -233 -198 -195 -246 -258 -283
-375 -79 -249 -104 -537 -71 -817 61 -520 311 -1021 705 -1415 214 -214 401
-350 655 -475 362 -178 707 -249 1095 -224 289 18 412 43 550 111 77 37 102
58 263 216 97 97 190 196 206 221 68 107 79 253 28 365 -22 47 -62 94 -200
233 -191 193 -255 242 -370 278 -205 65 -433 9 -587 -145 -94 -94 -136 -182
-170 -354 l-12 -58 -81 6 c-652 55 -1160 562 -1213 1207 -8 99 -20 86 111 114
101 22 165 50 237 106 176 135 265 387 213 608 -31 128 -68 181 -283 393 -172
170 -204 198 -252 215 -68 25 -149 34 -214 23z m170 -180 c50 -25 340 -317
377 -380 96 -166 65 -382 -74 -515 -74 -71 -136 -99 -285 -129 -102 -21 -122
-28 -143 -52 -23 -28 -24 -31 -18 -159 16 -378 162 -710 432 -980 261 -262
598 -412 970 -432 128 -7 159 -2 179 30 8 12 26 75 40 140 30 142 58 205 120
274 71 78 171 125 280 131 92 5 172 -13 241 -54 60 -35 371 -352 390 -396 19
-48 19 -118 0 -165 -16 -37 -198 -231 -329 -350 -79 -72 -119 -89 -286 -126
-302 -68 -603 -60 -916 23 -604 160 -1156 614 -1448 1190 -110 217 -173 405
-213 635 -24 140 -24 473 0 605 28 148 66 281 94 325 14 22 103 117 197 212
149 150 177 173 221 187 58 18 113 13 171 -14z"/>
<path d="M2082 3317 c-27 -29 -29 -77 -4 -107 16 -19 33 -24 117 -31 117 -10
183 -23 273 -53 160 -55 303 -148 427 -277 174 -183 270 -403 291 -663 6 -75
10 -93 30 -113 44 -44 114 -21 130 42 9 36 -14 213 -42 324 -49 196 -192 433
-346 576 -213 197 -523 325 -788 325 -57 0 -70 -3 -88 -23z"/>
</g>
</svg>
