<?xml version="1.0" standalone="no"?>
<!DOCTYPE svg PUBLIC "-//W3C//DTD SVG 20010904//EN"
 "http://www.w3.org/TR/2001/REC-SVG-20010904/DTD/svg10.dtd">
<svg version="1.0" xmlns="http://www.w3.org/2000/svg"
 width="448.000000pt" height="448.000000pt" viewBox="0 0 448.000000 448.000000"
 preserveAspectRatio="xMidYMid meet">

<g transform="translate(0.000000,448.000000) scale(0.100000,-0.100000)"
fill="#000000" stroke="none">
<path d="M1320 4453 c-28 -26 -75 -177 -671 -2163 -352 -1174 -643 -2154 -646
-2177 -5 -39 -2 -46 30 -78 25 -25 44 -35 67 -35 45 0 87 28 104 69 29 76
1286 4279 1286 4304 0 92 -103 141 -170 80z"/>
<path d="M2024 4461 c-48 -29 -54 -61 -54 -303 0 -325 -6 -318 270 -318 276 0
270 -8 270 320 0 328 7 320 -272 320 -162 0 -187 -2 -214 -19z m266 -301 l0
-110 -50 0 -50 0 0 110 0 110 50 0 50 0 0 -110z"/>
<path d="M3041 4466 c-30 -17 -50 -52 -51 -90 0 -27 1253 -4223 1286 -4307 17
-41 59 -69 104 -69 23 0 42 10 67 35 32 32 35 39 30 78 -3 23 -294 1003 -646
2177 -596 1986 -643 2137 -671 2163 -34 30 -79 35 -119 13z"/>
<path d="M2033 3614 c-61 -30 -63 -46 -63 -414 0 -282 2 -337 16 -365 27 -57
59 -65 254 -65 195 0 227 8 254 65 14 28 16 83 16 365 0 370 -2 385 -65 414
-48 23 -365 23 -412 0z m257 -414 l0 -210 -50 0 -50 0 0 210 0 210 50 0 50 0
0 -210z"/>
<path d="M2024 2541 c-17 -11 -36 -34 -43 -52 -7 -22 -11 -169 -11 -466 0
-483 0 -487 65 -517 48 -23 362 -23 410 0 65 30 65 33 65 518 0 480 -1 491
-59 520 -24 13 -66 16 -213 16 -162 0 -187 -2 -214 -19z m266 -511 l0 -320
-50 0 -50 0 0 320 0 320 50 0 50 0 0 -320z"/>
<path d="M2024 1261 c-17 -11 -36 -34 -43 -52 -8 -22 -11 -196 -11 -571 0
-591 0 -592 59 -622 44 -23 378 -23 422 0 59 30 59 31 59 624 0 593 0 594 -59
624 -24 13 -66 16 -213 16 -162 0 -187 -2 -214 -19z m266 -621 l0 -430 -50 0
-50 0 0 430 0 430 50 0 50 0 0 -430z"/>
</g>
</svg>
