<?xml version="1.0" standalone="no"?>
<!DOCTYPE svg PUBLIC "-//W3C//DTD SVG 20010904//EN"
 "http://www.w3.org/TR/2001/REC-SVG-20010904/DTD/svg10.dtd">
<svg version="1.0" xmlns="http://www.w3.org/2000/svg"
 width="380.000000pt" height="375.000000pt" viewBox="0 0 380.000000 375.000000"
 preserveAspectRatio="xMidYMid meet">

<g transform="translate(0.000000,375.000000) scale(0.100000,-0.100000)"
fill="#000000" stroke="none">
<path d="M482 3733 c-11 -10 -113 -153 -226 -317 l-206 -300 0 -107 c0 -185
30 -278 121 -374 54 -57 171 -125 215 -125 l24 0 0 -470 0 -470 -130 0 c-146
0 -184 -12 -233 -70 -41 -48 -49 -92 -45 -242 3 -133 4 -137 33 -179 40 -56
93 -83 178 -87 l67 -4 0 -470 0 -469 25 -24 24 -25 1569 0 1569 0 21 23 c22
23 22 24 22 500 l0 477 59 0 c100 0 161 31 202 103 22 39 24 53 24 187 0 134
-2 148 -24 187 -45 79 -101 103 -237 103 l-94 0 0 463 0 464 43 12 c115 34
216 123 270 238 30 65 32 74 35 215 l4 146 -198 289 c-109 158 -211 300 -225
316 l-27 27 -1420 0 c-1338 0 -1421 -1 -1440 -17z m485 -135 c-3 -7 -42 -106
-88 -220 l-83 -208 -269 0 c-148 0 -267 4 -265 9 2 4 68 103 148 219 l145 211
209 1 c163 0 207 -3 203 -12z m593 9 c0 -7 -50 -373 -55 -404 l-6 -33 -274 0
c-151 0 -275 3 -275 8 0 4 34 93 76 197 42 105 80 200 85 213 8 22 10 22 229
22 121 0 220 -1 220 -3z m580 0 c0 -7 50 -373 55 -404 l6 -33 -281 0 -281 0 6
33 c5 31 55 397 55 404 0 2 99 3 220 3 121 0 220 -1 220 -3z m658 -199 c45
-112 84 -211 88 -220 6 -17 -11 -18 -269 -18 l-276 0 -6 33 c-5 31 -55 397
-55 404 0 2 98 3 218 3 l218 0 82 -202z m632 -10 c80 -116 147 -215 148 -220
2 -4 -116 -7 -264 -6 l-269 3 -87 210 c-47 116 -87 213 -87 218 -1 4 92 7 207
7 l207 -1 145 -211z m-2662 -452 c-3 -64 -10 -96 -32 -139 -86 -177 -317 -217
-459 -79 -62 60 -80 104 -85 210 l-4 92 292 0 293 0 -5 -84z m1440 2 c-6 -108
-34 -174 -100 -233 -105 -94 -255 -99 -369 -11 -25 19 -57 57 -74 87 -25 46
-30 68 -33 147 l-4 92 292 0 293 0 -5 -82z m720 0 c-6 -108 -34 -174 -100
-233 -113 -102 -267 -99 -382 6 -70 64 -96 127 -96 234 l0 75 291 0 292 0 -5
-82z m722 9 c0 -94 -21 -155 -75 -215 -63 -70 -123 -97 -215 -97 -92 1 -156
30 -219 101 -49 56 -71 122 -71 216 l0 68 290 0 290 0 0 -73z m-2162 -14 c-8
-131 -59 -216 -163 -271 -42 -22 -63 -27 -130 -27 -71 0 -86 3 -135 31 -61 34
-121 105 -139 164 -6 20 -11 69 -11 109 l0 71 291 0 292 0 -5 -77z m233 -395
c31 -15 76 -32 100 -37 147 -34 317 20 412 132 l40 47 61 -59 c140 -134 311
-166 477 -90 38 18 74 38 80 45 6 8 15 14 20 14 5 0 9 -224 9 -510 l0 -510
-1005 0 -1005 0 0 516 0 515 33 -24 c55 -42 113 -66 186 -79 138 -23 272 21
371 122 l55 56 55 -55 c31 -31 81 -68 111 -83z m-951 -453 l0 -515 -110 0
-110 0 0 463 0 463 58 18 c31 9 80 33 107 51 28 19 51 35 53 35 1 0 2 -232 2
-515z m2461 429 l59 -18 0 -463 0 -463 -110 0 -110 0 0 515 0 516 51 -35 c29
-19 78 -43 110 -52z m399 -1104 c18 -18 20 -33 20 -138 0 -78 -4 -122 -12
-130 -9 -9 -409 -12 -1739 -12 -1557 0 -1729 2 -1743 16 -13 12 -16 39 -16
128 0 113 6 137 40 149 8 3 783 6 1723 6 1694 1 1707 1 1727 -19z m-260 -845
l0 -425 -1475 0 -1475 0 0 425 0 425 1475 0 1475 0 0 -425z"/>
</g>
</svg>
