<?xml version="1.0" standalone="no"?>
<!DOCTYPE svg PUBLIC "-//W3C//DTD SVG 20010904//EN"
 "http://www.w3.org/TR/2001/REC-SVG-20010904/DTD/svg10.dtd">
<svg version="1.0" xmlns="http://www.w3.org/2000/svg"
 width="512.000000pt" height="512.000000pt" viewBox="0 0 512.000000 512.000000"
 preserveAspectRatio="xMidYMid meet">

<g transform="translate(0.000000,512.000000) scale(0.100000,-0.100000)"
fill="#000000" stroke="none">
<path d="M2900 5113 c-49 -7 -146 -46 -195 -78 -107 -68 -198 -200 -224 -323
-62 -296 138 -581 436 -624 240 -34 477 112 559 346 65 182 13 398 -128 537
-115 114 -287 168 -448 142z m223 -192 c62 -27 142 -103 175 -166 24 -45 27
-61 27 -155 0 -91 -3 -111 -23 -148 -77 -144 -231 -222 -379 -192 -116 24
-201 91 -252 199 -22 48 -26 70 -26 146 0 79 4 97 28 145 47 92 120 153 220
186 56 19 169 11 230 -15z"/>
<path d="M1965 3948 l-430 -163 -55 -55 c-54 -53 -63 -70 -262 -515 -114 -253
-212 -482 -219 -508 -25 -102 20 -249 98 -318 87 -76 223 -108 324 -75 71 23
134 69 172 123 18 24 99 195 182 380 82 184 155 336 160 337 6 0 11 -9 13 -21
2 -11 -90 -349 -203 -750 -162 -573 -212 -737 -234 -768 -390 -555 -617 -885
-634 -922 -18 -39 -22 -66 -22 -148 0 -91 3 -106 31 -165 56 -117 147 -189
273 -215 119 -25 245 8 334 87 20 18 199 251 398 518 350 470 364 490 430 630
38 80 81 171 97 204 l28 58 152 -141 151 -142 3 -542 3 -542 31 -65 c54 -115
132 -182 248 -215 170 -49 363 40 444 204 l27 56 3 635 3 635 -23 45 c-13 25
-156 227 -319 450 -163 223 -299 410 -303 417 -7 13 90 359 107 381 5 6 19 12
31 12 12 0 195 -92 406 -204 212 -114 405 -210 433 -217 122 -29 249 11 336
106 70 77 94 146 89 251 -5 100 -40 176 -109 237 -30 28 -184 114 -445 251
-220 115 -405 213 -411 218 -7 6 -45 74 -85 151 -105 202 -100 199 -423 341
-240 107 -277 120 -335 123 -63 3 -79 -2 -495 -159z m762 -121 l258 -114 83
-154 c45 -85 97 -168 115 -185 18 -18 209 -125 437 -244 223 -117 413 -220
424 -229 10 -9 27 -33 37 -53 66 -128 -44 -278 -187 -255 -19 3 -209 99 -422
213 -373 200 -389 208 -452 212 -54 3 -72 0 -109 -20 -79 -42 -97 -75 -163
-299 -63 -216 -67 -254 -33 -319 8 -16 152 -217 320 -447 l305 -418 -2 -607
-3 -606 -31 -39 c-42 -52 -87 -81 -141 -89 -84 -12 -171 31 -213 106 l-25 45
-5 550 c-4 492 -7 553 -22 581 -14 26 -140 149 -390 381 -64 60 -100 68 -142
31 -14 -13 -74 -128 -141 -271 l-116 -248 -363 -487 c-403 -541 -397 -533
-507 -533 -67 0 -96 10 -144 53 -68 59 -94 163 -61 241 7 18 151 229 320 470
169 241 316 452 326 470 29 49 440 1509 440 1563 0 121 -94 214 -218 214 -48
0 -62 -4 -80 -23 -12 -13 -95 -187 -185 -388 -89 -201 -171 -378 -181 -393
-24 -38 -98 -70 -147 -63 -88 12 -157 95 -146 176 8 60 402 931 435 961 17 16
140 68 342 144 173 66 353 134 400 152 47 18 95 33 107 33 12 1 138 -50 280
-112z"/>
</g>
</svg>
