<?xml version="1.0" standalone="no"?>
<!DOCTYPE svg PUBLIC "-//W3C//DTD SVG 20010904//EN"
 "http://www.w3.org/TR/2001/REC-SVG-20010904/DTD/svg10.dtd">
<svg version="1.0" xmlns="http://www.w3.org/2000/svg"
 width="501.000000pt" height="500.000000pt" viewBox="0 0 501.000000 500.000000"
 preserveAspectRatio="xMidYMid meet">

<g transform="translate(0.000000,500.000000) scale(0.100000,-0.100000)"
fill="#000000" stroke="none">
<path d="M2335 4994 c-182 -18 -255 -29 -356 -50 -740 -155 -1375 -657 -1720
-1359 -181 -368 -258 -728 -246 -1139 11 -371 88 -685 251 -1021 128 -266 263
-458 466 -668 366 -379 801 -617 1301 -711 1265 -240 2500 506 2873 1735 90
297 123 615 96 919 -45 492 -205 921 -486 1300 -96 130 -345 380 -476 478
-363 272 -795 445 -1248 502 -92 11 -390 21 -455 14z m285 -194 c157 -80 303
-335 416 -727 39 -137 113 -474 129 -595 l7 -46 -43 -7 c-254 -35 -724 -45
-1018 -21 -234 19 -261 24 -261 42 0 7 11 75 25 151 147 801 386 1251 651
1229 28 -2 70 -14 94 -26z m-551 -107 c-154 -236 -284 -633 -360 -1100 -11
-70 -22 -130 -25 -132 -19 -19 -612 136 -648 170 -6 5 23 74 71 171 228 460
527 766 913 935 41 18 81 33 87 33 7 0 -10 -35 -38 -77z m1016 2 c72 -36 171
-95 220 -132 182 -136 375 -352 504 -566 73 -121 185 -357 175 -367 -36 -33
-629 -188 -648 -169 -3 2 -14 62 -25 132 -76 468 -206 864 -361 1101 -51 78
-51 78 -23 72 15 -4 87 -36 158 -71z m-1644 -151 c-165 -153 -351 -410 -469
-649 -38 -77 -74 -154 -81 -172 l-13 -31 -36 15 c-60 24 -242 127 -242 136 0
21 143 192 254 303 174 173 302 271 515 393 69 39 129 71 134 71 5 0 -23 -30
-62 -66z m2210 -5 c220 -126 384 -253 546 -422 91 -96 223 -257 223 -274 0 -9
-182 -112 -241 -136 l-36 -15 -43 97 c-131 288 -292 525 -491 724 -54 53 -95
97 -91 97 5 0 64 -32 133 -71z m-3051 -889 c48 -28 118 -64 155 -81 46 -21 65
-34 61 -44 -15 -39 -78 -282 -95 -365 -30 -146 -51 -312 -58 -452 l-6 -128
-244 0 -244 0 6 68 c34 374 121 676 281 969 25 46 48 83 51 83 3 0 45 -23 93
-50z m3995 -96 c145 -289 218 -554 250 -906 l6 -68 -244 0 -244 0 -6 128 c-7
140 -28 306 -58 452 -17 83 -80 326 -95 365 -4 9 21 26 78 53 46 21 115 58
153 80 39 23 75 40 80 39 6 -2 42 -66 80 -143z m-3240 -193 c83 -21 185 -44
228 -51 43 -7 79 -16 81 -19 1 -3 -3 -62 -10 -131 -7 -69 -15 -195 -18 -280
-4 -85 -9 -188 -12 -227 l-6 -73 -399 0 -399 0 0 53 c0 197 57 534 130 774
l21 71 117 -39 c64 -22 185 -57 267 -78z m2733 -16 c62 -227 96 -426 108 -642
l7 -123 -400 0 -400 0 -7 53 c-3 28 -6 91 -6 138 0 69 -16 317 -33 498 -2 23
3 25 133 51 154 31 310 74 455 123 68 23 102 30 106 23 4 -6 20 -60 37 -121z
m-2003 -101 c231 -20 774 -14 975 10 68 8 127 13 129 10 11 -11 31 -258 37
-466 l7 -218 -723 0 -723 0 6 208 c6 191 21 404 33 461 4 20 9 22 37 17 18 -3
118 -13 222 -22z m-1422 -956 c13 -253 65 -532 153 -810 4 -13 -10 -24 -61
-47 -37 -17 -108 -54 -158 -82 -107 -62 -89 -74 -187 126 -135 277 -204 534
-235 878 l-6 67 244 0 244 0 6 -132z m961 60 c3 -40 8 -143 12 -228 3 -85 11
-211 18 -280 7 -69 11 -128 10 -131 -2 -3 -38 -12 -81 -19 -109 -17 -356 -82
-495 -129 l-118 -40 -21 72 c-73 246 -129 577 -129 768 l0 59 399 0 399 0 6
-72z m1607 68 c13 -13 -25 -661 -40 -678 -3 -4 -67 0 -141 9 -192 24 -875 24
-1075 1 -77 -9 -142 -15 -145 -12 -10 11 -30 259 -36 467 l-7 217 720 0 c396
0 722 -2 724 -4z m969 -51 c0 -93 -29 -343 -56 -475 -20 -102 -52 -227 -90
-352 -4 -14 -18 -12 -121 23 -157 52 -281 86 -443 119 -130 26 -135 28 -133
51 17 186 33 430 33 504 0 51 3 113 6 139 l7 46 398 0 399 0 0 -55z m645 -12
c-31 -344 -103 -611 -240 -888 -93 -188 -77 -177 -171 -122 -44 25 -114 62
-157 82 -54 25 -77 41 -73 50 15 39 78 282 95 365 30 146 51 312 58 453 l6
127 244 0 244 0 -6 -67z m-1850 -762 c50 -6 110 -13 134 -16 l43 -7 -6 -46
c-16 -111 -60 -327 -93 -457 -121 -475 -295 -796 -476 -881 -66 -30 -108 -30
-174 0 -181 85 -355 406 -476 881 -36 139 -79 353 -92 452 l-7 52 45 6 c24 4
114 13 198 20 174 16 752 13 904 -4z m-1305 -58 c0 -5 9 -63 20 -131 76 -465
206 -860 360 -1096 51 -78 51 -78 23 -72 -15 4 -86 36 -158 71 -263 132 -480
331 -671 616 -87 130 -242 435 -228 448 15 14 256 89 387 121 210 50 267 59
267 43z m1774 -13 c183 -38 496 -128 520 -151 14 -13 -141 -318 -228 -448
-191 -285 -409 -486 -671 -616 -71 -35 -143 -67 -158 -71 -28 -6 -28 -6 23 72
154 236 284 631 360 1096 11 68 20 126 20 131 0 11 30 9 134 -13z m-2491 -415
c117 -238 302 -496 468 -649 39 -36 67 -66 62 -66 -19 0 -260 143 -353 210
-114 81 -259 208 -354 311 -77 83 -196 232 -196 245 0 11 38 34 170 101 l105
53 14 -32 c8 -18 46 -96 84 -173z m3345 117 c56 -31 102 -61 102 -65 0 -17
-132 -178 -223 -274 -103 -107 -224 -211 -342 -294 -83 -59 -322 -199 -338
-199 -5 0 23 30 62 66 191 177 388 462 521 755 l43 97 36 -15 c20 -8 82 -40
139 -71z"/>
</g>
</svg>
